<?xml version="1.0" encoding="UTF-8"?>
<!-- Generator: visioncortex VTracer 0.6.5 -->
<svg version="1.1" xmlns="http://www.w3.org/2000/svg" width="1408" height="768">
<path d="M0 0 C464.64 0 929.28 0 1408 0 C1408 253.44 1408 506.88 1408 768 C943.36 768 478.72 768 0 768 C0 514.56 0 261.12 0 0 Z M374 81 C374.26 81.65 374.52 82.29 374.79 82.96 C379.39 94.38 383.96 105.8 388.31 117.31 C388.97 119.02 389.62 120.73 390.27 122.44 C391.32 125.18 392.32 127.92 393.29 130.69 C396.06 138.23 399.64 142.19 406 147 C407.61 148.27 409.21 149.54 410.82 150.81 C412.61 152.22 414.4 153.62 416.2 155.02 C426.09 162.75 435.75 170.78 445.44 178.75 C445.81 179.05 445.81 179.05 447.68 180.59 C448.36 181.16 449.04 181.72 449.75 182.3 C450.35 182.8 450.96 183.29 451.58 183.81 C453 185 453 185 454 186 C439.48 186 424.96 186 410 186 C412.32 189.86 414.26 192.58 417.25 195.81 C418.05 196.69 418.86 197.57 419.68 198.47 C420.45 199.31 421.21 200.14 422 201 C425.79 205.25 429.5 209.57 433.2 213.89 C434.24 215.1 435.29 216.3 436.34 217.5 C438.89 220.43 441.3 223.36 443.48 226.58 C448.58 233.87 452.85 236.88 461.37 238.98 C462.28 239.22 463.19 239.46 464.13 239.71 C466.08 240.23 468.03 240.73 469.99 241.23 C472.99 242 475.99 242.79 478.99 243.6 C484.03 244.94 489.08 246.27 494.13 247.58 C497.25 248.39 500.38 249.21 503.5 250.03 C505.49 250.55 507.49 251.07 509.48 251.59 C510.41 251.83 511.34 252.07 512.3 252.32 C513.15 252.55 514 252.77 514.88 252.99 C515.63 253.19 516.38 253.38 517.15 253.58 C519 254 519 254 521 254 C521.24 253.55 521.24 253.55 522.43 251.28 C524.23 247.89 526.03 244.49 527.82 241.1 C528.59 239.64 529.36 238.18 530.13 236.73 C534.78 227.93 539.52 219.24 544.57 210.66 C546 208 546 208 546 206 C555.31 205.98 564.62 206.03 573.93 206.16 C578.26 206.22 582.58 206.25 586.91 206.24 C591.09 206.23 595.27 206.27 599.45 206.36 C601.04 206.38 602.63 206.38 604.21 206.36 C612.1 206.27 618.18 206.47 624.11 212.11 C625.56 213.65 626.94 215.22 628.29 216.85 C631 220 631 220 638 226 C621.83 226.33 605.66 226.66 589 227 C591.36 232.91 593.89 237.13 599 241 C603.22 242.16 607.19 242.01 611.53 241.82 C612.72 241.81 613.91 241.8 615.14 241.79 C618.93 241.76 622.71 241.67 626.5 241.56 C630.29 241.46 634.07 241.38 637.86 241.35 C640.21 241.33 642.56 241.27 644.91 241.17 C651.02 241.12 654.33 241.6 658.78 245.98 C662 249.68 662 249.68 662 251 C661.07 251.03 660.14 251.05 659.18 251.08 C625.01 252.01 625.01 252.01 609 253 C611.9 258.57 615.05 264.01 620 268 C623.39 269.01 626.5 268.8 630 268.56 C630.99 268.53 631.98 268.49 633 268.46 C635.17 268.38 637.34 268.28 639.51 268.17 C643.14 267.99 646.77 267.88 650.4 267.78 C658.25 267.57 666.09 267.29 673.94 267 C676.68 266.9 679.41 266.81 682.15 266.71 C688.77 266.48 695.38 266.24 702 266 C701.22 265.23 700.45 264.47 699.64 263.68 C697 261 697 261 694.69 258.12 C692.79 255.81 690.78 253.88 688.5 251.94 C684.63 248.65 681.07 245.11 677.5 241.5 C674.13 238.09 670.79 234.72 667.12 231.62 C663.02 228.15 659.28 224.32 655.5 220.5 C651.18 216.13 646.89 211.83 642.11 207.96 C640.24 206.22 638.68 204.47 637.04 202.51 C636.48 201.88 635.92 201.24 635.34 200.58 C634.24 199.32 633.17 198.03 632.15 196.71 C629.23 193.46 626.9 192.12 622.52 191.52 C621.12 191.45 619.72 191.4 618.32 191.36 C617.54 191.33 616.76 191.3 615.96 191.26 C613.31 191.16 610.65 191.08 608 191 C607.05 190.97 606.11 190.94 605.13 190.91 C598.69 190.7 592.25 190.53 585.81 190.37 C582.18 190.28 578.55 190.19 574.92 190.09 C565.91 189.86 556.91 189.63 547.9 189.4 C540.26 189.21 532.61 189.01 524.97 188.81 C521.42 188.72 517.86 188.63 514.31 188.55 C509.1 188.41 503.89 188.26 498.68 188.09 C496.97 188.03 495.26 187.98 493.55 187.93 C491.46 187.87 489.36 187.79 487.27 187.7 C486.17 187.66 485.07 187.61 483.94 187.57 C478 186.42 474.2 182.08 470 178 C467.69 175.99 465.35 174.03 463 172.06 C462.45 171.59 461.89 171.12 461.33 170.63 C458.95 168.6 456.61 166.74 454 165 C466.62 165.57 479.19 166.45 491.77 167.59 C494.75 167.86 497.73 168.12 500.71 168.38 C508.08 169.03 515.46 169.69 522.84 170.35 C529.12 170.91 535.4 171.47 541.69 172.02 C544.6 172.28 547.52 172.54 550.44 172.81 C552.24 172.96 554.04 173.12 555.83 173.28 C556.63 173.35 557.43 173.43 558.25 173.5 C563.52 173.96 568.71 174.06 574 174 C571.21 168.89 568.11 164.3 564.56 159.69 C558.61 151.85 552.84 143.9 547.1 135.92 C542.08 128.94 537.04 121.97 532 115 C532.64 115.08 533.28 115.16 533.93 115.25 C542.37 116.34 550.81 117.42 559.25 118.5 C559.94 118.59 560.63 118.68 561.34 118.77 C585.19 121.81 609.06 124.71 632.94 127.5 C633.32 127.54 633.32 127.54 635.24 127.77 C644.49 128.85 653.75 129.93 663 131 C662.76 131.56 662.52 132.12 662.27 132.7 C661.17 135.23 660.09 137.77 659 140.31 C658.62 141.19 658.24 142.07 657.84 142.98 C657.48 143.83 657.12 144.68 656.75 145.55 C656.58 145.94 656.58 145.94 655.73 147.92 C655 150 655 150 655 153 C641.47 151.02 627.94 149.04 614 147 C613.01 150.96 612.02 154.92 611 159 C613.16 161.16 617.68 160.85 620.67 161.23 C622.47 161.48 624.27 161.73 626.06 161.98 C628.9 162.37 631.74 162.75 634.59 163.11 C637.33 163.47 640.06 163.85 642.8 164.23 C643.64 164.34 644.49 164.44 645.36 164.54 C650.78 165.34 653.43 166.58 657 171 C657.66 171.77 658.32 172.54 659 173.33 C659.66 174.15 660.32 174.97 661 175.81 C661.39 176.29 661.39 176.29 663.34 178.7 C663.76 179.23 664.18 179.75 664.62 180.29 C666.14 182.17 667.66 184.05 669.19 185.92 C673.9 191.7 678.6 197.49 683.25 203.31 C689.77 211.48 696.42 219.54 703.19 227.5 C704.47 228.99 705.73 230.5 707 232 C707.39 232.42 707.39 232.42 709.34 234.57 C711.31 237.45 711.35 238.55 710.81 241.94 C710.75 242.37 710.75 242.37 710.43 244.55 C710.36 244.95 710.36 244.95 710 247 C709.81 248.2 709.63 249.39 709.44 250.62 C709.29 251.41 709.15 252.19 709 253 C709.99 253.33 710.98 253.66 712 254 C713.54 250.42 715.05 246.84 716.56 243.25 C716.78 242.74 716.78 242.74 717.89 240.17 C718.3 239.19 718.71 238.21 719.13 237.2 C719.51 236.3 719.89 235.4 720.29 234.47 C721.08 231.73 721.09 230.61 720 228 C718.78 226.21 718.78 226.21 717.23 224.38 C716.65 223.7 716.08 223.02 715.49 222.31 C714.88 221.59 714.26 220.87 713.62 220.12 C712.34 218.59 711.06 217.06 709.78 215.53 C709.14 214.77 708.5 214 707.84 213.22 C705.23 210.07 702.7 206.86 700.19 203.62 C697.01 199.54 693.79 195.5 690.5 191.5 C686.61 186.77 682.8 181.98 679.04 177.14 C676.91 174.4 674.76 171.72 672.49 169.1 C672.12 168.67 672.12 168.67 670.25 166.5 C669.6 165.77 668.94 165.04 668.27 164.28 C666.47 161.04 667 159.55 668 156 C669.09 153 670.31 150.06 671.56 147.12 C671.73 146.73 671.73 146.73 672.56 144.75 C673.37 142.83 674.18 140.92 675 139 C678.97 142.87 682.63 146.93 686.25 151.12 C686.82 151.79 687.4 152.45 687.99 153.14 C691.95 157.74 695.81 162.41 699.63 167.13 C703.04 171.26 706.55 175.28 710.06 179.31 C714.05 183.89 717.99 188.51 721.91 193.16 C725.25 197.12 728.62 201.06 732 205 C735.85 209.48 739.69 213.98 743.5 218.5 C747.3 222.99 751.11 227.47 754.94 231.94 C755.19 232.23 755.19 232.23 756.44 233.69 C759 236.67 761.55 239.64 764.11 242.61 C769.48 248.84 774.78 255.11 779.96 261.5 C782 264 782 264 784.57 266.37 C788.42 271.03 787.85 276.74 787.91 282.52 C787.93 283.73 787.95 284.95 787.97 286.2 C788.01 288.76 788.03 291.32 788.04 293.88 C788.06 297.79 788.18 301.69 788.3 305.6 C788.59 324.93 788.59 324.93 784.44 329.64 C781.36 331.97 778.54 333.49 775 335 C773.19 336.18 771.39 337.38 769.62 338.62 C768.63 339.28 767.64 339.93 766.62 340.6 C761.94 343.69 757.32 346.84 752.69 350 C751.75 350.64 750.8 351.28 749.83 351.95 C743 356.61 736.22 361.33 729.44 366.06 C721.84 371.36 714.2 376.6 706.5 381.75 C705.65 382.32 704.79 382.89 703.91 383.48 C703.11 384.02 702.3 384.56 701.47 385.11 C700.77 385.57 700.08 386.04 699.36 386.51 C698.97 386.76 698.97 386.76 697 388 C696.5 388.34 696.5 388.34 694 390.06 C689.33 392.7 684.91 392.53 679.66 392.45 C678.64 392.45 677.63 392.46 676.58 392.46 C673.24 392.45 669.9 392.42 666.57 392.39 C664.24 392.38 661.92 392.38 659.6 392.37 C653.5 392.36 647.41 392.32 641.31 392.27 C635.08 392.23 628.85 392.22 622.63 392.2 C610.42 392.15 598.21 392.08 586 392 C588.22 389.93 590.43 387.86 592.65 385.79 C592.96 385.49 592.96 385.49 594.53 384.02 C598.11 380.69 601.74 377.49 605.56 374.44 C609.71 371.12 613.62 367.63 617.5 364 C621.48 360.31 625.46 356.61 629.56 353.06 C630.33 352.39 631.09 351.72 631.88 351.04 C636.62 347.95 641.75 346.04 647 344 C647.82 343.68 648.64 343.36 649.48 343.04 C655.44 340.72 661.41 338.43 667.38 336.15 C670.56 334.94 673.74 333.72 676.91 332.51 C678.96 331.72 681.01 330.94 683.07 330.15 C684 329.79 684.93 329.44 685.9 329.07 C687.69 328.38 689.49 327.7 691.29 327.02 C693.18 326.31 695.07 325.58 696.95 324.85 C697.43 324.67 697.43 324.67 699.87 323.74 C700.74 323.41 701.6 323.07 702.49 322.73 C705.17 321.95 707.22 321.75 710 322 C712.97 323.64 712.97 323.64 716.06 325.81 C717.08 326.52 718.11 327.23 719.16 327.96 C720.88 329.19 722.58 330.46 724.25 331.76 C726 333 726 333 728 333 C724.39 336.88 720.75 339.63 716.19 342.31 C715.89 342.49 715.89 342.49 714.38 343.4 C712.92 344.27 711.46 345.14 710 346 C710.82 349.98 712.66 352.68 715 356 C719.16 354.52 722.71 352.41 726.38 350 C726.97 349.61 727.57 349.22 728.19 348.82 C733.55 345.32 738.88 341.76 744.2 338.19 C748.79 335.1 748.79 335.1 751 334 C749.56 330.46 747.92 328.96 744.74 326.9 C743.87 326.33 743.01 325.76 742.12 325.18 C741.19 324.58 740.27 323.99 739.31 323.38 C738.36 322.75 737.4 322.13 736.42 321.48 C734.5 320.22 732.57 318.97 730.64 317.72 C727.27 315.52 723.91 313.3 720.56 311.06 C719.99 310.68 719.42 310.3 718.82 309.91 C712.18 305.48 705.6 300.96 699.03 296.44 C697.25 295.22 695.47 294.02 693.68 292.82 C691.86 291.58 690.07 290.3 688.3 288.99 C687.4 288.34 686.5 287.7 685.58 287.04 C685.19 286.75 685.19 286.75 683.2 285.27 C673.2 281.29 659.46 284.58 648.92 285.48 C645.72 285.76 642.52 286.02 639.32 286.29 C632.52 286.85 625.73 287.43 618.94 288 C611.06 288.67 603.17 289.33 595.29 289.98 C592.15 290.24 589.02 290.51 585.88 290.78 C583.94 290.94 582 291.1 580.05 291.27 C579.2 291.34 578.34 291.42 577.45 291.49 C573.02 291.86 568.59 292.09 564.13 292.19 C563.25 292.21 562.37 292.23 561.46 292.25 C557.06 291.8 554.26 289.31 551 286.5 C549.64 285.4 548.27 284.3 546.91 283.2 C546.25 282.66 545.59 282.12 544.91 281.56 C542.19 279.34 539.36 277.3 536.5 275.25 C535.62 274.62 534.75 273.98 533.84 273.33 C533.24 272.89 532.63 272.45 532 272 C539.88 270.97 547.73 270.69 555.66 270.46 C557.06 270.42 558.46 270.38 559.86 270.33 C563.51 270.22 567.17 270.11 570.82 270 C574.56 269.89 578.3 269.78 582.04 269.66 C589.36 269.44 596.68 269.22 604 269 C603.04 267.72 602.08 266.44 601.12 265.15 C600.59 264.44 600.05 263.73 599.5 262.99 C597.81 260.75 596.08 258.56 594.31 256.38 C591.58 252.97 588.86 249.56 586.18 246.12 C585.26 244.95 584.34 243.78 583.41 242.63 C580.79 239.34 578.29 236.01 575.9 232.55 C568.22 221.8 568.22 221.8 564.06 220.3 C559.94 219.66 556.05 220.13 552 221 C553.31 223.82 554.78 226.14 556.76 228.54 C557.3 229.2 557.84 229.86 558.39 230.53 C558.96 231.22 559.54 231.91 560.12 232.62 C561.3 234.06 562.48 235.49 563.65 236.93 C564.22 237.62 564.8 238.32 565.39 239.03 C567.5 241.61 569.6 244.21 571.69 246.81 C572.29 247.56 572.89 248.31 573.51 249.08 C574.74 250.67 575.89 252.33 577 254 C575.98 253.99 574.97 253.98 573.92 253.96 C556.84 253.84 539.78 254.42 522.71 254.93 C518.56 255.05 514.41 255.17 510.26 255.29 C502.17 255.52 494.09 255.76 486 256 C486 256.66 486 257.32 486 258 C487.54 259.35 487.54 259.35 489.7 260.91 C490.49 261.48 491.28 262.05 492.09 262.64 C492.95 263.26 493.81 263.87 494.69 264.5 C496.45 265.78 498.22 267.06 499.98 268.34 C500.85 268.97 501.71 269.6 502.6 270.25 C505.61 272.45 508.56 274.71 511.5 277 C517.47 281.63 523.52 286.15 529.63 290.59 C533.73 293.56 537.76 296.59 541.69 299.79 C553.09 308.87 553.09 308.87 558.65 309.25 C559.82 309.1 560.99 308.96 562.19 308.81 C573.41 307.66 581.81 316.48 590.26 322.93 C594.08 325.82 598.03 328.51 602 331.19 C603.21 332.01 604.42 332.84 605.62 333.67 C605.9 333.86 605.9 333.86 607.3 334.81 C609.16 336.11 610.98 337.46 612.81 338.8 C616 341 616 341 618 341 C615.15 344.92 611.92 347.93 608.26 351.05 C605.86 353.12 603.53 355.24 601.19 357.38 C597.75 360.49 594.24 363.46 590.62 366.38 C585.48 370.54 580.62 374.95 575.76 379.45 C569.54 385.2 563.07 390.66 556.63 396.17 C552.81 399.44 549.01 402.72 545.23 406.02 C537.66 412.61 530.02 419.09 522.1 425.26 C521.18 425.98 520.26 426.7 519.31 427.44 C518.48 428.08 517.65 428.71 516.8 429.37 C516.21 429.91 515.61 430.45 515 431 C515 431.66 515 432.32 515 433 C514.47 433.22 513.93 433.45 513.38 433.68 C510.21 435.44 507.6 437.75 504.88 440.12 C503.71 441.13 502.54 442.13 501.37 443.13 C500.79 443.62 500.22 444.12 499.63 444.62 C497.45 446.46 495.23 448.24 493 450 C488.55 453.53 484.22 457.18 479.89 460.86 C476.4 463.83 472.87 466.74 469.31 469.62 C464.05 473.91 459 478.41 454 483 C456.85 484.9 458.23 485.42 461.48 486.05 C462.39 486.23 463.29 486.41 464.23 486.6 C464.71 486.69 464.71 486.69 467.18 487.16 C468.18 487.36 469.19 487.56 470.22 487.76 C472.35 488.18 474.48 488.59 476.6 489 C479.86 489.62 483.11 490.26 486.36 490.9 C488.42 491.3 490.49 491.7 492.55 492.1 C493.53 492.29 494.5 492.48 495.5 492.68 C495.95 492.77 495.95 492.77 498.26 493.21 C498.66 493.28 498.66 493.28 500.67 493.67 C503.14 494.02 505.51 494.06 508 494 C502.67 500.36 496.89 506.23 491 512.08 C489.35 513.72 487.7 515.36 486.05 517.01 C482.55 520.49 479.06 523.96 475.56 527.44 C471.48 531.49 467.41 535.55 463.34 539.61 C461.71 541.23 460.08 542.85 458.44 544.47 C457.46 545.45 456.47 546.44 455.48 547.42 C455.05 547.85 455.05 547.85 452.85 550.04 C451 552 451 552 451 553 C462.87 552.45 474.51 550.18 486.2 548.18 C488.48 547.79 490.76 547.4 493.04 547.01 C497.82 546.2 502.6 545.38 507.38 544.56 C514.59 543.33 521.8 542.1 529.01 540.88 C539.28 539.13 549.54 537.36 559.81 535.57 C565.54 534.58 571.28 533.63 577.03 532.73 C580.13 532.25 583.23 531.74 586.33 531.23 C588.34 530.9 590.36 530.61 592.38 530.32 C599.26 529.17 603.43 527.77 608.05 522.41 C609.94 519.73 611.48 516.95 612.94 514.01 C614.59 510.88 616.71 508.32 618.94 505.56 C619.76 504.5 620.58 503.44 621.39 502.38 C621.81 501.84 622.23 501.29 622.67 500.73 C630.36 490.75 637.99 480.71 645.62 470.69 C646.31 469.79 647 468.88 647.71 467.96 C648.35 467.11 649 466.26 649.66 465.39 C650.24 464.64 650.81 463.89 651.4 463.11 C651.93 462.42 652.45 461.72 653 461 C653.56 460.29 654.13 459.58 654.71 458.85 C656 457 656 457 656 455 C664.43 463.34 672.36 472.07 679.79 481.32 C682.11 484.13 684.53 486.82 687 489.5 C691.11 493.97 694.97 498.59 698.79 503.32 C701.65 506.79 704.68 510.1 707.71 513.43 C711.63 517.83 715.3 522.42 719 527 C718.24 526.96 717.48 526.91 716.7 526.87 C695.48 525.93 695.48 525.93 689.64 529.41 C685.75 533 683.22 537.23 681 542 C681 542.33 681 542.66 681 543 C732.48 543 783.96 543 837 543 C835.02 540.03 833.04 537.06 831 534 C830.61 533.42 830.61 533.42 828.65 530.46 C825.65 527.68 823.96 527.37 819.92 527.48 C819.15 527.52 818.38 527.57 817.59 527.62 C815.92 527.65 814.26 527.68 812.59 527.7 C809.99 527.78 807.39 527.87 804.79 528 C789.49 528.69 789.49 528.69 784.5 524.47 C781.64 521.57 779.32 518.35 777 515 C775.47 513.11 773.93 511.24 772.38 509.38 C772.02 508.93 772.02 508.93 770.2 506.67 C767.26 503.1 764.17 499.69 761.04 496.29 C760.37 495.53 759.69 494.78 759 494 C758.23 493.16 757.47 492.32 756.68 491.46 C755 489 755 489 755.26 487.06 C756.02 484.93 756.92 483.39 758.23 481.56 C758.7 480.9 759.16 480.25 759.64 479.57 C760.15 478.87 760.66 478.16 761.19 477.44 C761.72 476.7 762.25 475.95 762.8 475.19 C768.56 467.16 774.43 459.22 780.31 451.28 C783.4 447.11 786.47 442.91 789.54 438.72 C791.26 436.36 792.99 434.01 794.8 431.71 C796 430 796 430 796 428 C796.71 427.73 797.42 427.47 798.15 427.19 C801.12 425.95 803.85 424.51 806.66 422.95 C807.75 422.34 808.85 421.73 809.97 421.1 C811.15 420.44 812.32 419.78 813.5 419.12 C814.71 418.45 815.93 417.77 817.14 417.09 C835.5 406.83 835.5 406.83 844.46 401.59 C847.18 400 849.89 398.55 852.76 397.25 C863.58 391.92 867.43 382.33 872.53 371.95 C874.82 367.35 877.32 362.87 879.81 358.38 C883.23 352.12 886.62 345.85 889.98 339.57 C890.15 339.25 890.15 339.25 891.01 337.65 C892.68 334.52 894.35 331.4 896.01 328.28 C896.62 327.14 897.22 326.01 897.85 324.84 C898.12 324.34 898.12 324.34 899.47 321.79 C901 319 901 319 902.58 316.66 C904.16 313.7 904.35 312.04 904.31 308.71 C904.3 307.68 904.29 306.65 904.29 305.59 C904.27 304.48 904.25 303.37 904.23 302.23 C904.23 299.85 904.23 297.47 904.23 295.1 C904.21 291.37 904.19 287.65 904.13 283.93 C903.94 268.76 904.2 257.58 913 245 C914.19 242.93 915.37 240.85 916.52 238.76 C917.61 236.88 918.71 235 919.81 233.12 C920.37 232.15 920.93 231.18 921.51 230.18 C921.78 229.71 921.78 229.71 923.14 227.38 C923.62 226.56 924.1 225.74 924.59 224.9 C926 223 926 223 929 222 C930.47 221.85 931.94 221.74 933.41 221.66 C933.86 221.64 933.86 221.64 936.12 221.51 C936.6 221.48 936.6 221.48 939.05 221.34 C941.14 221.21 943.22 221.07 945.3 220.93 C948.56 220.71 951.81 220.5 955.07 220.33 C974.15 219.32 988.57 214.08 1005.25 205.12 C1013.76 201.39 1020.83 204.91 1029 208 C1030.66 208.38 1032.32 208.73 1034 209 C1028.07 186.41 1016.28 170 997 157 C996.28 156.51 995.57 156.02 994.83 155.51 C991.36 153.66 987.9 152.87 984.09 152.1 C983.7 152.02 983.7 152.02 981.77 151.61 C980.15 151.26 978.52 150.92 976.89 150.58 C974.36 150.06 971.83 149.52 969.3 148.98 C962.46 147.51 955.62 146.06 948.72 144.91 C938.7 143.2 932.23 140.47 925 133 C923.99 132 922.97 130.99 921.95 129.99 C919.89 127.95 917.84 125.89 915.8 123.81 C912.86 120.86 909.81 118.09 906.62 115.4 C905 114 905 114 903.88 112.44 C900.95 110.2 897.79 110.55 894.24 110.55 C893.85 110.54 893.85 110.54 891.85 110.51 C889.24 110.48 886.63 110.47 884.02 110.46 C882.2 110.45 880.38 110.44 878.56 110.42 C874.75 110.4 870.94 110.39 867.12 110.39 C862.25 110.38 857.37 110.33 852.49 110.27 C848.74 110.23 844.98 110.22 841.23 110.22 C839.43 110.21 837.63 110.2 835.83 110.17 C821.79 109.96 821.79 109.96 817.38 112.52 C815.61 114.26 814.31 115.9 813 118 C812.23 118.9 811.46 119.81 810.66 120.74 C809.99 121.59 809.32 122.44 808.62 123.31 C805.72 126.92 802.76 130.41 799.62 133.81 C796.08 137.69 792.83 141.72 789.62 145.88 C785.63 151.04 781.44 155.91 776.98 160.68 C773.26 164.66 769.81 168.82 766.39 173.07 C763.08 177.12 759.67 181.09 756.25 185.05 C755.77 185.61 755.29 186.17 754.8 186.74 C754.33 187.28 753.86 187.81 753.38 188.37 C752.44 189.48 751.51 190.61 750.6 191.75 C749.44 193.2 748.22 194.6 747 196 C746.34 196 745.68 196 745 196 C743.51 194.34 743.51 194.34 741.69 191.94 C738.07 187.29 734.3 182.81 730.44 178.38 C729.87 177.72 729.3 177.07 728.72 176.4 C725.91 173.17 723.08 169.96 720.25 166.75 C717.72 163.87 715.29 160.92 712.88 157.94 C708.63 152.71 704.23 147.63 699.81 142.56 C696.55 138.82 693.37 135.04 690.25 131.19 C689.57 130.38 688.9 129.57 688.2 128.74 C686 126 686 126 684.37 123.43 C680.41 117.83 676.69 115.45 670.08 114.24 C665.26 113.55 660.42 113.07 655.57 112.61 C653.41 112.37 651.26 112.13 649.1 111.89 C643.41 111.25 637.71 110.67 632.01 110.1 C626.41 109.53 620.81 108.92 615.21 108.3 C608.5 107.57 601.78 106.85 595.06 106.14 C572.91 103.81 550.81 101.16 528.7 98.45 C521.81 97.61 514.92 96.77 508.03 95.93 C506.52 95.75 505.02 95.57 503.51 95.38 C495.79 94.44 488.06 93.51 480.33 92.57 C479.56 92.47 478.79 92.38 478 92.28 C474.09 91.81 470.18 91.33 466.27 90.86 C458.26 89.89 450.25 88.91 442.25 87.93 C435.11 87.06 427.98 86.19 420.84 85.33 C417.11 84.88 413.37 84.42 409.64 83.96 C405.52 83.46 401.4 82.96 397.29 82.47 C396.08 82.32 394.88 82.17 393.64 82.01 C387.05 81.23 380.63 80.8 374 81 Z M600 134 C598.33 138.04 596.65 142.08 594.98 146.12 C594.41 147.49 593.85 148.86 593.28 150.23 C592.46 152.21 591.64 154.19 590.82 156.17 C590.33 157.36 589.84 158.55 589.33 159.77 C588.89 160.84 588.45 161.9 588 163 C587.81 163.44 587.81 163.44 586.82 165.68 C586 168 586 168 586 172 C587.98 172 589.96 172 592 172 C595.9 163.9 599.45 155.68 602.88 147.38 C603.28 146.4 603.69 145.43 604.1 144.43 C604.29 143.97 604.29 143.97 605.24 141.65 C605.58 140.83 605.92 140 606.27 139.15 C607 137 607 137 607 134 C604.69 134 602.38 134 600 134 Z M751 259 C751 260.98 751 262.96 751 265 C753.31 265 755.62 265 758 265 C758 276.55 758 288.1 758 300 C755.69 300 753.38 300 751 300 C751 301.98 751 303.96 751 306 C755.78 308.39 761.66 307 767 307 C767 291.16 767 275.32 767 259 C755 258 755 258 751 259 Z M720 259 C720 274.51 720 290.02 720 306 C725.61 306 731.22 306 737 306 C737 304.02 737 302.04 737 300 C734.36 300 731.72 300 729 300 C729 288.45 729 276.9 729 265 C731.64 265 734.28 265 737 265 C737 263.02 737 261.04 737 259 C735.67 258.8 734.33 258.62 733 258.44 C732.26 258.33 731.51 258.23 730.75 258.12 C728 258 728 258 720 259 Z M669.75 354.97 C668.89 355.37 668.04 355.78 667.16 356.2 C666.26 356.63 665.36 357.06 664.44 357.5 C663.54 357.93 662.63 358.36 661.71 358.8 C659.47 359.87 657.23 360.93 655 362 C655 364.31 655 366.62 655 369 C657.58 370.32 660.16 371.63 662.75 372.94 C663.48 373.31 664.21 373.68 664.96 374.07 C665.67 374.43 666.38 374.78 667.11 375.15 C667.76 375.48 668.41 375.81 669.08 376.15 C671.03 377.01 672.92 377.54 675 378 C675 376.02 675 374.04 675 372 C671.04 370.02 667.08 368.04 663 366 C663.43 365.78 663.43 365.78 665.62 364.68 C666.74 364.08 667.85 363.49 669 362.88 C670.11 362.29 671.23 361.71 672.38 361.12 C675 359 675 359 675.38 355.76 C675.25 354.85 675.13 353.94 675 353 C673.12 353 671.41 354.17 669.75 354.97 Z M684 354 C684 355.98 684 357.96 684 360 C687.63 361.98 691.26 363.96 695 366 C693.18 366.82 693.18 366.82 684 371 C684 373.31 684 375.62 684 378 C686.61 376.88 689.21 375.75 691.81 374.62 C692.55 374.31 693.29 373.99 694.05 373.66 C694.76 373.35 695.47 373.05 696.21 372.73 C696.86 372.44 697.52 372.16 698.19 371.87 C700 371 700 371 703 369 C703.19 365.38 703.19 365.38 703 362 C700.21 360.66 697.42 359.33 694.62 358 C693.83 357.62 693.04 357.24 692.22 356.84 C691.46 356.48 690.7 356.12 689.91 355.75 C689.21 355.41 688.51 355.08 687.79 354.73 C686 354 686 354 684 354 Z M639 357 C638.34 358.65 637.68 360.3 637 362 C637.99 362.99 638.98 363.98 640 365 C641.65 364.34 643.3 363.68 645 363 C645.04 361.33 645.04 359.67 645 358 C644 357 644 357 641.44 356.94 C640.63 356.96 639.83 356.98 639 357 Z M638 371 C637.87 376.53 637.87 376.53 638.56 379.12 C639.09 381.39 638.7 382.82 638 385 C640.54 384.65 641.82 384.16 643.75 382.44 C645.6 378.82 645.26 376.04 645 372 C644 371 644 371 640.94 370.94 C639.97 370.96 639 370.98 638 371 Z M633 607 C624.9 616.39 624.51 629.2 624.62 641 C624.61 642.18 624.6 643.36 624.59 644.58 C624.63 656.34 626.29 666.78 634 676 C645.25 686.96 661.22 687.15 675.97 687.17 C676.47 687.17 676.47 687.17 679 687.18 C681.1 687.18 683.21 687.19 685.31 687.19 C688.49 687.19 691.68 687.21 694.86 687.22 C696.92 687.23 698.98 687.23 701.03 687.23 C701.5 687.23 701.5 687.23 703.87 687.25 C712.73 687.22 721.99 686.96 729 681 C733.32 676.09 733.17 671.3 733.2 665.03 C733.21 664.15 733.21 663.27 733.22 662.36 C733.23 660.51 733.24 658.65 733.24 656.79 C733.25 653.94 733.28 651.1 733.31 648.25 C733.32 646.45 733.32 644.64 733.33 642.84 C733.33 642.41 733.33 642.41 733.37 640.25 C733.36 637.85 733.36 637.85 733 634 C729.67 631.78 728.66 631.75 724.79 631.77 C723.73 631.77 722.67 631.77 721.58 631.77 C721.01 631.78 721.01 631.78 718.11 631.8 C717.53 631.81 717.53 631.81 714.56 631.81 C710.81 631.82 707.06 631.85 703.31 631.88 C700.77 631.89 698.23 631.89 695.69 631.9 C689.46 631.92 683.23 631.96 677 632 C677 637.61 677 643.22 677 649 C682.45 649.16 682.45 649.16 710 650 C710 655.28 710 660.56 710 666 C703.31 666.1 696.62 666.17 689.93 666.22 C687.66 666.24 685.38 666.27 683.11 666.3 C679.83 666.35 676.56 666.37 673.28 666.39 C672.78 666.4 672.78 666.4 670.22 666.45 C663.03 666.46 657.65 665.29 652.12 660.31 C647.01 649.8 647.76 635.97 651 625 C652.08 621.89 653 620.58 655.84 618.94 C663.59 615.49 671.09 615.4 679.41 615.39 C680.88 615.38 682.34 615.36 683.81 615.34 C687.63 615.3 691.46 615.28 695.28 615.26 C699.2 615.24 703.11 615.2 707.03 615.16 C714.68 615.09 722.34 615.04 730 615 C730 608.73 730 602.46 730 596 C716.47 595.27 702.99 594.81 689.44 594.81 C686.6 594.81 683.77 594.79 680.93 594.78 C646.11 594.67 646.11 594.67 633 607 Z M374 596 C373.98 607.72 373.96 619.43 373.95 631.15 C373.94 636.59 373.94 642.03 373.92 647.47 C373.91 652.72 373.91 657.96 373.91 663.21 C373.9 665.21 373.9 667.22 373.89 669.23 C373.89 672.03 373.89 674.83 373.89 677.62 C373.88 678.46 373.88 679.3 373.88 680.16 C373.89 685.89 373.89 685.89 375 687 C376.62 687.1 378.25 687.13 379.88 687.13 C380.86 687.13 381.84 687.14 382.86 687.14 C383.38 687.13 383.38 687.13 386 687.12 C387.04 687.13 388.07 687.13 389.14 687.14 C390.13 687.14 391.11 687.13 392.12 687.13 C393.04 687.13 393.95 687.13 394.88 687.13 C397 687 397 687 398 686 C398.09 683.26 398.12 680.55 398.1 677.81 C398.1 677.08 398.1 676.36 398.09 675.61 C398.09 672.88 398.08 670.16 398.06 667.44 C398.05 664.4 398.05 664.4 398 649 C416.81 649 435.62 649 455 649 C454.94 667.44 454.94 667.44 454.91 673.26 C454.91 674.78 454.9 676.29 454.9 677.81 C454.9 678.6 454.89 679.4 454.89 680.21 C454.89 682.14 454.94 684.07 455 686 C456.65 687.65 458.6 687.13 460.88 687.13 C461.86 687.13 462.84 687.14 463.86 687.14 C464.38 687.13 464.38 687.13 467 687.12 C468.04 687.13 469.07 687.13 470.14 687.14 C471.13 687.14 472.11 687.13 473.12 687.13 C473.58 687.13 473.58 687.13 475.88 687.13 C478 687 478 687 479 686 C479.1 683.2 479.13 680.42 479.11 677.62 C479.11 676.75 479.11 675.87 479.11 674.96 C479.11 672.05 479.11 669.13 479.1 666.21 C479.1 664.2 479.09 662.18 479.09 660.17 C479.09 654.85 479.08 649.53 479.07 644.21 C479.06 638.79 479.05 633.37 479.05 627.94 C479.04 617.3 479.02 606.65 479 596 C471.08 596 463.16 596 455 596 C455 607.22 455 618.44 455 630 C436.19 630 417.38 630 398 630 C398 618.78 398 607.56 398 596 C390.08 596 382.16 596 374 596 Z M499 596 C498.93 603.62 498.88 611.23 498.84 618.85 C498.83 622.38 498.81 625.92 498.77 629.46 C498.73 633.54 498.72 637.62 498.71 641.7 C498.69 642.95 498.68 644.2 498.66 645.49 C498.66 656.98 499.99 668.2 508 677 C517.92 685.52 529.49 687.14 542.16 687.2 C543.03 687.21 543.89 687.21 544.79 687.22 C546.62 687.23 548.45 687.24 550.28 687.24 C553.03 687.25 555.78 687.28 558.54 687.31 C573.52 687.4 586.96 686.81 598.75 676.62 C604.64 669.75 607.26 662.47 607.23 653.33 C607.23 652.05 607.23 650.77 607.23 649.45 C607.22 648.07 607.21 646.69 607.2 645.32 C607.19 643.89 607.19 642.47 607.19 641.04 C607.18 637.31 607.16 633.58 607.14 629.85 C607.12 626.04 607.11 622.22 607.1 618.41 C607.08 610.94 607.04 603.47 607 596 C599.41 596 591.82 596 584 596 C583.41 605.91 582.95 615.76 583 625.68 C583.01 626.43 583.01 627.19 583.01 627.96 C583.04 631.73 583.07 635.5 583.12 639.27 C583.3 656.06 583.3 656.06 578.75 661.88 C571.96 667.12 564.05 666.34 555.89 666.32 C553.64 666.31 551.39 666.34 549.14 666.36 C541.94 666.39 535.52 666.42 529 663 C524.38 658.38 523.89 654.54 523.79 648.22 C523.77 647.06 523.75 645.9 523.73 644.7 C523.72 643.46 523.7 642.21 523.68 640.92 C523.66 639.64 523.64 638.36 523.62 637.04 C523.57 633.64 523.52 630.24 523.47 626.84 C523.42 623.37 523.36 619.89 523.31 616.42 C523.2 609.61 523.1 602.81 523 596 C515.08 596 507.16 596 499 596 Z M753 596 C752.98 607.72 752.96 619.43 752.95 631.15 C752.94 636.59 752.94 642.03 752.92 647.47 C752.91 652.72 752.91 657.96 752.91 663.21 C752.9 665.21 752.9 667.22 752.89 669.23 C752.89 672.03 752.89 674.83 752.89 677.62 C752.88 678.46 752.88 679.3 752.88 680.16 C752.89 685.89 752.89 685.89 754 687 C755.54 687.1 757.08 687.13 758.62 687.13 C759.56 687.13 760.49 687.14 761.46 687.14 C762.44 687.13 763.42 687.13 764.44 687.12 C765.42 687.13 766.4 687.13 767.41 687.14 C767.88 687.14 767.88 687.14 770.25 687.13 C771.11 687.13 771.97 687.13 772.86 687.13 C775 687 775 687 777 686 C777 656.3 777 626.6 777 596 C769.08 596 761.16 596 753 596 Z M799.86 598.02 C797.48 601.83 797.46 605 797.53 609.35 C797.53 610.18 797.53 611.01 797.52 611.86 C797.52 614.59 797.55 617.32 797.57 620.05 C797.58 621.94 797.58 623.84 797.58 625.74 C797.59 629.7 797.61 633.67 797.64 637.64 C797.68 642.74 797.7 647.83 797.71 652.93 C797.72 657.78 797.74 662.63 797.76 667.48 C797.77 668.42 797.77 669.35 797.77 670.31 C797.78 672.92 797.8 675.54 797.82 678.16 C797.83 678.95 797.83 679.73 797.83 680.54 C797.89 685.89 797.89 685.89 799 687 C800.55 687.1 802.1 687.13 803.66 687.13 C804.6 687.13 805.54 687.14 806.5 687.14 C807 687.13 807 687.13 809.5 687.12 C809.99 687.13 809.99 687.13 812.5 687.14 C812.97 687.14 812.97 687.14 815.34 687.13 C815.78 687.13 815.78 687.13 817.97 687.13 C820 687 820 687 821 686 C821.12 684.01 821.18 682.01 821.21 680.01 C821.23 678.73 821.25 677.45 821.27 676.13 C821.28 674.72 821.3 673.31 821.32 671.9 C821.34 670.47 821.36 669.04 821.38 667.6 C821.43 663.82 821.48 660.04 821.53 656.26 C821.58 652.41 821.64 648.56 821.69 644.7 C821.8 637.13 821.9 629.57 822 622 C823.91 624.22 825.81 626.44 827.72 628.66 C828.25 629.28 828.79 629.9 829.34 630.54 C832.44 634.16 835.5 637.8 838.5 641.5 C841.93 645.73 845.45 649.88 849 654 C852.57 658.15 856.11 662.32 859.56 666.56 C861.04 668.38 862.52 670.19 864 672 C864.46 672.56 864.92 673.12 865.39 673.7 C866.86 675.5 868.33 677.28 869.81 679.06 C870.27 679.62 870.73 680.18 871.2 680.76 C874.14 684.29 876.45 686.69 881.12 687.26 C881.86 687.26 882.61 687.26 883.37 687.27 C884.19 687.27 885.01 687.27 885.86 687.27 C886.29 687.27 886.29 687.27 888.44 687.25 C889.28 687.26 890.13 687.27 891 687.27 C895.37 687.26 899.12 687.25 903 685 C906.45 679.83 906.15 674.24 906.13 668.19 C906.13 667.43 906.13 666.67 906.13 665.89 C906.14 663.4 906.14 660.91 906.13 658.42 C906.13 656.69 906.13 654.95 906.14 653.22 C906.14 649.59 906.14 645.96 906.13 642.33 C906.12 637.68 906.13 633.02 906.13 628.36 C906.14 624.78 906.14 621.21 906.13 617.63 C906.13 615.91 906.13 614.19 906.14 612.47 C906.14 610.08 906.13 607.69 906.13 605.29 C906.13 604.94 906.13 604.94 906.14 603.13 C906.11 598.23 906.11 598.23 905 596 C897.74 596 890.48 596 883 596 C882.67 616.79 882.34 637.58 882 659 C868.16 643.03 868.16 643.03 862.3 635.8 C859.12 631.93 855.86 628.14 852.59 624.34 C849.1 620.29 845.64 616.21 842.19 612.12 C835.73 604.49 835.73 604.49 833 601.31 C832.48 600.71 831.97 600.11 831.44 599.49 C828.2 596.14 825.85 595.72 821.38 595.63 C819.11 595.6 816.83 595.57 814.56 595.56 C813.42 595.53 812.27 595.5 811.09 595.46 C809.99 595.46 808.89 595.45 807.75 595.44 C806.75 595.43 805.74 595.41 804.7 595.4 C802 596 802 596 799.86 598.02 Z M927 600 C926.14 605.29 925.85 610.47 925.87 615.84 C925.87 616.57 925.87 617.31 925.87 618.07 C925.86 620.48 925.86 622.89 925.87 625.3 C925.87 626.99 925.87 628.67 925.86 630.36 C925.86 633.87 925.86 637.39 925.87 640.91 C925.88 645.42 925.87 649.93 925.87 654.44 C925.86 657.91 925.86 661.39 925.87 664.86 C925.87 666.52 925.87 668.19 925.86 669.85 C925.86 672.17 925.87 674.49 925.87 676.81 C925.87 678.13 925.87 679.45 925.87 680.81 C926 684 926 684 927 687 C934.26 687 941.52 687 949 687 C949.72 682.68 950.12 679.2 950.11 674.9 C950.11 674.31 950.11 674.31 950.11 671.32 C950.11 670.07 950.1 668.81 950.1 667.51 C950.1 666.21 950.09 664.91 950.09 663.57 C950.09 660.12 950.08 656.68 950.07 653.24 C950.06 649.72 950.05 646.2 950.05 642.68 C950.04 635.79 950.02 628.89 950 622 C951.58 623.72 953.15 625.44 954.73 627.17 C955.6 628.13 956.48 629.09 957.39 630.07 C960.57 633.64 963.58 637.33 966.59 641.05 C969.34 644.41 972.16 647.71 975 651 C979.31 656 983.54 661.07 987.7 666.2 C990.38 669.46 993.09 672.71 995.81 675.94 C996.27 676.48 996.73 677.03 997.2 677.59 C1004.04 685.68 1004.04 685.68 1008 687 C1010.95 687.22 1013.91 687.19 1016.88 687.19 C1017.68 687.2 1018.48 687.21 1019.31 687.22 C1024.45 687.24 1028.72 687.21 1032.61 683.44 C1034.6 679.95 1034.39 676.65 1034.34 672.74 C1034.34 671.91 1034.34 671.08 1034.34 670.23 C1034.34 667.49 1034.32 664.75 1034.29 662.02 C1034.29 660.12 1034.28 658.22 1034.28 656.32 C1034.27 651.32 1034.24 646.32 1034.21 641.32 C1034.18 636.22 1034.16 631.12 1034.15 626.02 C1034.11 616.01 1034.06 606.01 1034 596 C1026.41 596 1018.82 596 1011 596 C1010.98 603.83 1010.96 611.66 1010.95 619.49 C1010.94 622.15 1010.93 624.81 1010.92 627.47 C1010.91 631.3 1010.91 635.14 1010.9 638.97 C1010.9 640.15 1010.89 641.34 1010.89 642.56 C1010.89 648.47 1011.09 654.15 1012 660 C1008.2 656.29 1004.69 652.42 1001.25 648.38 C1000.99 648.07 1000.99 648.07 999.65 646.51 C995.81 641.99 992.06 637.42 988.32 632.82 C985.21 629.04 982.01 625.34 978.81 621.64 C975.91 618.27 973.07 614.88 970.26 611.43 C969.95 611.05 969.95 611.05 968.36 609.11 C967.15 607.61 965.93 606.1 964.72 604.6 C964.16 603.91 963.61 603.23 963.03 602.52 C962.54 601.91 962.05 601.3 961.55 600.68 C958.97 597.88 957.16 596.17 953.31 595.6 C950.04 595.56 946.77 595.54 943.5 595.56 C942.36 595.54 941.22 595.52 940.04 595.5 C939.49 595.5 939.49 595.5 936.72 595.5 C935.72 595.5 934.72 595.5 933.69 595.5 C930.14 596.16 929.05 597.03 927 600 Z M1351 689 C1350.82 689.4 1350.82 689.4 1349.93 691.41 C1344.94 702.14 1339.96 706.78 1329 711 C1329 711.66 1329 712.32 1329 713 C1329.4 713.18 1329.4 713.18 1331.41 714.07 C1342.14 719.06 1346.78 724.04 1351 735 C1351.66 735 1352.32 735 1353 735 C1353.35 734.2 1353.7 733.41 1354.07 732.59 C1359.06 721.86 1364.04 717.22 1375 713 C1375 712.34 1375 711.68 1375 711 C1374.2 710.65 1373.41 710.3 1372.59 709.93 C1361.86 704.94 1357.22 699.96 1353 689 C1352.34 689 1351.68 689 1351 689 Z " fill="#000000" transform="translate(0,0)"/>
<path d="M0 0 C12.07 0.74 24.04 2.24 36.04 3.69 C38.26 3.95 40.47 4.22 42.69 4.48 C47.31 5.04 51.92 5.59 56.54 6.15 C62.46 6.86 68.39 7.57 74.31 8.28 C78.88 8.82 83.44 9.37 88 9.92 C90.19 10.18 92.37 10.44 94.56 10.7 C97.6 11.07 100.64 11.43 103.69 11.8 C104.59 11.91 105.49 12.01 106.43 12.13 C107.25 12.23 108.08 12.33 108.93 12.43 C109.65 12.52 110.37 12.6 111.11 12.69 C114.52 13.25 115.79 13.74 117.99 16.49 C118.77 17.61 119.54 18.74 120.31 19.88 C121.2 21.15 122.09 22.43 122.98 23.7 C123.46 24.39 123.94 25.08 124.44 25.79 C127.27 29.8 130.2 33.74 133.12 37.69 C134.32 39.3 135.51 40.92 136.7 42.54 C137.27 43.3 137.83 44.06 138.41 44.84 C140.57 47.77 142.73 50.69 144.88 53.62 C145.49 54.46 146.11 55.3 146.74 56.16 C148 58 148 58 148 59 C139.78 59.19 131.67 58.46 123.49 57.72 C122 57.59 120.5 57.46 119.01 57.33 C115.89 57.05 112.77 56.77 109.65 56.49 C105.67 56.13 101.69 55.78 97.71 55.43 C94.63 55.16 91.54 54.88 88.46 54.61 C86.99 54.48 85.53 54.35 84.06 54.22 C82 54.03 79.95 53.85 77.89 53.66 C77.31 53.61 77.31 53.61 74.36 53.35 C70.89 52.99 67.45 52.52 64 52 C67.71 45 71.64 38.16 75.75 31.39 C78.23 27.3 80.64 23.17 83 19 C79.04 18.67 75.08 18.34 71 18 C70.34 19.65 69.68 21.3 69 23 C67.9 24.97 66.76 26.92 65.59 28.85 C65.26 29.4 65.26 29.4 63.59 32.18 C62.89 33.33 62.2 34.48 61.5 35.62 C60.8 36.78 60.11 37.94 59.41 39.09 C54.37 47.45 54.37 47.45 52 51 C39.98 50.48 33.25 48.4 24.04 40.55 C21 38 21 38 18.87 36.68 C10.93 31.47 8.54 24.16 5.44 15.62 C4.9 14.22 4.37 12.81 3.83 11.41 C0 1.38 0 1.38 0 0 Z " fill="#000000" transform="translate(398,99)"/>
<path d="M0 0 C1.57 0 3.14 -0 4.71 -0.01 C8 -0.01 11.29 0.02 14.57 0.06 C18.78 0.11 22.98 0.11 27.19 0.09 C30.43 0.08 33.67 0.09 36.91 0.11 C38.46 0.12 40.01 0.12 41.56 0.12 C43.73 0.11 45.9 0.14 48.07 0.18 C49.3 0.19 50.53 0.2 51.8 0.21 C55.94 1.04 57.37 2.69 60.06 5.86 C61.54 7.29 63.03 8.72 64.52 10.14 C66.16 11.74 67.8 13.33 69.43 14.92 C69.86 15.32 69.86 15.32 71.99 17.35 C72.78 18.13 73.58 18.91 74.39 19.71 C75.12 20.41 75.85 21.11 76.6 21.83 C78.06 23.86 78.06 23.86 77.87 25.98 C76.79 28.47 75.41 30.56 73.87 32.8 C73.52 33.32 73.52 33.32 71.74 35.96 C69.64 39.03 67.49 42.07 65.34 45.11 C64.04 46.98 62.74 48.86 61.43 50.73 C60.78 51.64 60.13 52.54 59.46 53.47 C54.99 59.96 54.99 59.96 55.31 63.98 C57.62 67.79 60.07 71.44 62.68 75.05 C63.7 76.45 64.72 77.86 65.72 79.28 C66.17 79.89 66.62 80.51 67.08 81.15 C68.06 82.86 68.06 82.86 68.06 85.86 C67.54 86.08 67.01 86.3 66.47 86.52 C61.01 88.81 55.54 91.1 50.07 93.39 C48.03 94.24 46 95.09 43.96 95.94 C41.02 97.17 38.08 98.4 35.15 99.63 C34.24 100.01 33.34 100.39 32.41 100.78 C31.55 101.14 30.69 101.5 29.8 101.87 C28.99 102.21 28.18 102.54 27.34 102.89 C25.25 103.78 23.17 104.7 21.09 105.62 C17.63 107.03 16.48 107.28 13.06 105.86 C10.73 104.09 8.59 102.32 6.43 100.36 C5.2 99.27 3.96 98.17 2.72 97.08 C2.11 96.54 1.5 95.99 0.86 95.43 C-2.61 92.41 -6.23 89.56 -9.83 86.7 C-12.11 84.71 -13.78 83.08 -14.19 79.99 C-14.19 79.29 -14.19 78.58 -14.18 77.86 C-14.19 77.07 -14.19 76.27 -14.19 75.45 C-14.19 75.02 -14.19 75.02 -14.17 72.85 C-14.17 71.97 -14.17 71.09 -14.17 70.18 C-14.17 68.32 -14.16 66.46 -14.15 64.6 C-14.13 61.74 -14.13 58.88 -14.13 56.02 C-14.12 54.21 -14.12 52.41 -14.11 50.6 C-14.11 49.74 -14.11 48.88 -14.11 47.99 C-14.06 41.98 -14.06 41.98 -12.94 40.86 C-11.6 40.77 -10.25 40.75 -8.91 40.76 C-8.1 40.76 -7.29 40.77 -6.46 40.77 C-6.03 40.78 -6.03 40.78 -3.88 40.8 C-3.02 40.8 -2.17 40.81 -1.29 40.81 C0.83 40.82 2.94 40.84 5.06 40.86 C5.06 37.56 5.06 34.26 5.06 30.86 C-4.51 30.86 -14.08 30.86 -23.94 30.86 C-24.08 38.49 -24.21 46.11 -24.22 53.74 C-24.23 57.29 -24.26 60.84 -24.35 64.39 C-24.93 89.22 -24.93 89.22 -20.17 95.06 C-17.11 97.96 -13.65 99.88 -9.94 101.86 C-7.88 103.4 -5.96 105.05 -4 106.73 C-3.12 107.45 -2.24 108.17 -1.33 108.91 C1.48 111.21 4.27 113.53 7.06 115.86 C6.67 116.47 6.28 117.08 5.88 117.7 C3.09 122.07 0.32 126.44 -2.42 130.84 C-2.85 131.52 -3.28 132.21 -3.72 132.92 C-4.55 134.26 -5.38 135.59 -6.21 136.94 C-6.61 137.57 -7.01 138.21 -7.41 138.87 C-7.79 139.49 -8.17 140.11 -8.56 140.75 C-9.94 142.86 -9.94 142.86 -11.49 144.65 C-16.81 151.18 -16.63 157.63 -16.33 165.68 C-16.25 168 -16.22 170.31 -16.19 172.63 C-16.13 179.2 -16 185.77 -15.79 192.34 C-15.66 196.38 -15.61 200.41 -15.59 204.45 C-15.58 205.98 -15.53 207.51 -15.46 209.03 C-14.92 220.62 -14.92 220.62 -18.3 224.37 C-22.16 227.54 -26.47 229.68 -30.94 231.86 C-32.66 232.9 -34.37 233.96 -36.06 235.05 C-36.84 235.53 -37.62 236.02 -38.42 236.51 C-40.1 237.54 -41.77 238.58 -43.43 239.62 C-48.41 242.72 -53.42 245.72 -58.52 248.61 C-59.61 249.24 -60.7 249.88 -61.82 250.53 C-63.94 251.76 -66.06 252.96 -68.21 254.13 C-73.75 257.41 -76.46 259.72 -78.12 266.07 C-78.73 269.45 -78.94 272.41 -78.94 275.86 C-34.66 248.64 -34.66 248.64 -15.26 236.32 C-12.94 234.86 -12.94 234.86 -10.93 234.14 C-8.29 233 -6.81 232.07 -4.94 229.86 C-3.76 224.56 -3.97 219.29 -4.08 213.9 C-4.08 212.31 -4.08 210.73 -4.08 209.14 C-4.07 204.96 -4.11 200.78 -4.16 196.61 C-4.24 189.93 -4.26 183.26 -4.26 176.58 C-4.27 174.26 -4.3 171.94 -4.34 169.62 C-4.41 162 -4.22 156.32 0.06 149.86 C0.82 148.65 1.59 147.43 2.36 146.22 C3.17 145.01 3.99 143.81 4.81 142.61 C5.7 141.31 6.59 140 7.47 138.7 C7.69 138.38 7.69 138.38 8.8 136.75 C9.98 134.98 11.1 133.18 12.21 131.36 C12.86 130.31 13.51 129.26 14.18 128.17 C14.46 127.71 14.46 127.71 15.88 125.35 C18.8 122.01 22.06 120.58 26.06 118.86 C27.21 118.35 28.37 117.84 29.56 117.32 C32.94 115.83 36.34 114.38 39.74 112.95 C41.89 112.04 44.03 111.12 46.17 110.2 C47.53 109.62 48.9 109.04 50.27 108.46 C50.9 108.19 51.54 107.91 52.2 107.63 C56.72 105.75 56.72 105.75 60.06 106.86 C59.67 107.3 59.28 107.75 58.88 108.21 C46.2 123.8 46.31 138.33 46.68 157.61 C47.03 178.81 45.7 192.54 33.09 209.97 C29.72 214.77 27 219.91 24.18 225.05 C23.12 226.9 22.06 228.76 20.99 230.62 C19.08 233.98 17.27 237.38 15.57 240.85 C15.18 241.63 14.8 242.4 14.4 243.2 C13.71 244.61 13.03 246.03 12.39 247.46 C9.58 253.15 5.46 255.74 0.06 258.86 C-0.74 259.33 -1.55 259.8 -2.37 260.29 C-4.99 261.8 -7.62 263.27 -10.25 264.73 C-12.29 265.88 -14.34 267.02 -16.38 268.17 C-17.44 268.77 -18.51 269.37 -19.61 269.98 C-24.77 272.89 -29.91 275.84 -35.05 278.78 C-45.65 284.86 -56.28 290.87 -66.96 296.82 C-74.78 301.19 -82.56 305.63 -90.31 310.13 C-94.11 312.32 -97.78 314.41 -101.94 315.86 C-101.77 315.29 -101.6 314.71 -101.43 314.12 C-97.29 299.61 -94.64 284.69 -91.94 269.86 C-92.93 270.51 -93.92 271.16 -94.93 271.83 C-96.23 272.67 -97.52 273.52 -98.82 274.36 C-99.47 274.79 -100.12 275.22 -100.79 275.66 C-105.71 278.86 -105.71 278.86 -107.94 278.86 C-108.02 280.16 -108.11 281.46 -108.19 282.8 C-110.99 309.64 -124.03 332.94 -141.94 352.86 C-146.12 350.98 -148.51 348.15 -151.38 344.67 C-152.44 343.41 -153.5 342.15 -154.56 340.88 C-155.11 340.23 -155.66 339.57 -156.23 338.89 C-159.63 334.86 -163.11 330.9 -166.58 326.92 C-169.44 323.63 -172.24 320.29 -174.94 316.86 C-173.55 312.8 -171.66 310.05 -168.88 306.8 C-165.54 302.82 -162.34 298.78 -159.25 294.61 C-157.82 292.69 -156.38 290.77 -154.94 288.86 C-154.67 288.5 -154.67 288.5 -153.29 286.65 C-150.47 283.11 -148.33 281.35 -143.97 279.78 C-140.24 278.09 -137.12 275.45 -133.86 273.01 C-131.16 271.02 -128.42 269.14 -125.63 267.3 C-116.92 261.54 -108.32 255.64 -99.71 249.75 C-97.17 248.02 -94.64 246.29 -92.11 244.56 C-83.43 238.65 -74.8 232.68 -66.19 226.67 C-59.53 222.03 -52.86 217.4 -46.13 212.86 C-45.52 212.44 -44.91 212.03 -44.28 211.6 C-40.18 208.86 -40.18 208.86 -37.94 208.86 C-37.77 199.99 -37.67 191.13 -37.66 182.26 C-37.65 178.14 -37.62 174.02 -37.53 169.9 C-36.89 138.17 -36.89 138.17 -45.26 129.45 C-46.92 127.91 -48.61 126.49 -50.4 125.12 C-52.72 123.23 -54.42 120.94 -56.19 118.55 C-58.81 115.22 -61.53 112.05 -64.38 108.92 C-71.66 100.92 -78.35 92.44 -84.94 83.86 C-83.43 80.38 -81.4 77.99 -78.82 75.23 C-75.8 71.94 -72.89 68.62 -70.13 65.11 C-65.9 59.75 -61.47 54.6 -57.02 49.43 C-54.14 46.09 -51.28 42.73 -48.44 39.36 C-44.59 34.8 -40.71 30.26 -36.82 25.73 C-32.49 20.7 -28.25 15.62 -24.07 10.46 C-23.37 9.6 -22.67 8.74 -21.94 7.86 C-21.62 7.28 -21.31 6.7 -20.98 6.1 C-16.17 -1.47 -7.99 -0.12 0 0 Z M27.17 17.83 C26.46 18.23 25.75 18.64 25.02 19.06 C24.29 19.49 23.56 19.92 22.81 20.36 C22.06 20.79 21.32 21.22 20.55 21.66 C18.72 22.72 16.89 23.79 15.06 24.86 C14.01 32.08 12.96 39.76 15.06 46.86 C19 52.01 25.74 55.55 32.06 56.86 C35.18 56.25 35.18 56.25 38.06 54.86 C39.19 54.47 40.32 54.09 41.49 53.69 C48.76 50.36 48.76 50.36 51.06 46.86 C52.73 39.7 51.85 32.1 51.06 24.86 C48.48 23.35 45.9 21.85 43.31 20.36 C42.58 19.93 41.85 19.5 41.1 19.06 C40.39 18.65 39.68 18.25 38.95 17.83 C38.3 17.45 37.65 17.07 36.98 16.69 C33.17 15.05 30.53 15.88 27.17 17.83 Z M-54.94 62.86 C-54.94 77.05 -54.94 91.24 -54.94 105.86 C-50.32 105.86 -45.7 105.86 -40.94 105.86 C-40.94 103.88 -40.94 101.9 -40.94 99.86 C-43.25 99.86 -45.56 99.86 -47.94 99.86 C-47.94 89.63 -47.94 79.4 -47.94 68.86 C-45.63 68.86 -43.32 68.86 -40.94 68.86 C-40.94 66.88 -40.94 64.9 -40.94 62.86 C-45.56 62.86 -50.18 62.86 -54.94 62.86 Z M13.06 146.86 C13.06 148.84 13.06 150.82 13.06 152.86 C15.7 153.19 18.34 153.52 21.06 153.86 C20.73 165.74 20.4 177.62 20.06 189.86 C17.75 189.86 15.44 189.86 13.06 189.86 C13.06 192.17 13.06 194.48 13.06 196.86 C18.34 196.86 23.62 196.86 29.06 196.86 C29.06 180.36 29.06 163.86 29.06 146.86 C23.78 146.86 18.5 146.86 13.06 146.86 Z " fill="#000000" transform="translate(841.94140625,126.140625)"/>
<path d="M0 0 C0.76 0.45 1.53 0.91 2.31 1.38 C3.64 2.05 4.98 2.72 6.31 3.38 C6.42 4.98 6.5 6.58 6.56 8.19 C6.61 9.08 6.66 9.97 6.7 10.89 C6.31 13.38 6.31 13.38 4.48 15.14 C1.61 16.78 -0.37 17.31 -3.69 17.38 C-7.06 16.06 -7.06 16.06 -9.69 13.38 C-10.2 9.99 -10.04 6.78 -9.69 3.38 C-3.43 -0.8 -3.43 -0.8 0 0 Z " fill="#000000" transform="translate(876.6875,153.625)"/>
<path d="M0 0 C2.2 0.14 2.2 0.14 4.97 0.69 C5.49 0.79 5.49 0.79 8.1 1.3 C9.22 1.53 10.34 1.76 11.5 2 C12.65 2.23 13.8 2.47 14.99 2.71 C17.43 3.21 19.86 3.71 22.29 4.22 C24.73 4.73 27.17 5.23 29.61 5.72 C33.08 6.41 36.54 7.14 40 7.88 C40.53 7.98 40.53 7.98 43.19 8.5 C50.74 10.17 55.99 13.2 62 18 C62.59 18.44 63.19 18.89 63.8 19.35 C67.43 22.16 69.66 25.12 72 29 C69.94 28.71 67.87 28.42 65.81 28.12 C63.98 27.87 62.15 27.61 60.31 27.35 C58.62 27.09 56.93 26.81 55.25 26.52 C46.92 25.1 38.82 24.66 30.39 24.59 C29.04 24.57 27.69 24.55 26.34 24.53 C22.84 24.48 19.33 24.44 15.83 24.4 C12.24 24.36 8.64 24.31 5.05 24.26 C-1.97 24.16 -8.98 24.08 -16 24 C-14.69 20.64 -13.35 17.81 -11.25 14.86 C-10.72 14.12 -10.2 13.38 -9.66 12.62 C-9.11 11.86 -8.56 11.1 -8 10.31 C-7.73 9.93 -7.73 9.93 -6.34 7.97 C-2.3 2.3 -2.3 2.3 0 0 Z " fill="#000000" transform="translate(935,158)"/>
<path d="M0 0 C7.65 0.08 15.3 0.18 22.95 0.29 C26.5 0.34 30.06 0.38 33.61 0.42 C37.71 0.47 41.8 0.53 45.9 0.59 C46.53 0.59 46.53 0.59 49.72 0.62 C56.7 0.74 63.22 1.3 70 3 C58.93 10.38 47.05 11.06 34.19 11.81 C32.44 11.93 30.68 12.05 28.93 12.18 C24.29 12.49 19.65 12.8 15 13 C14.26 13.03 13.52 13.07 12.75 13.1 C7.28 13.25 7.28 13.25 4.69 10.92 C4.41 10.47 4.41 10.47 3 8.19 C2.42 7.29 1.85 6.4 1.25 5.48 C0 3 0 3 0 0 Z " fill="#000000" transform="translate(918,193)"/>
<path d="M0 0 C28.67 -0.24 57.37 0.39 86 2 C83.97 8.53 80.89 14.3 77.69 20.31 C77.12 21.42 76.55 22.53 75.96 23.67 C75.68 24.2 75.68 24.2 74.26 26.86 C73.76 27.83 73.25 28.79 72.73 29.78 C71 32 71 32 68.7 32.7 C65.83 33.02 63.87 32.75 61.08 32.06 C60.13 31.83 59.17 31.6 58.19 31.36 C57.18 31.1 56.16 30.84 55.11 30.57 C54.05 30.3 52.99 30.03 51.9 29.76 C49.66 29.18 47.42 28.6 45.18 28.02 C41.78 27.13 38.38 26.3 34.96 25.46 C32.78 24.9 30.6 24.33 28.42 23.76 C27.41 23.52 26.4 23.28 25.36 23.03 C17.57 20.9 13.2 17.08 8 11 C7.52 10.46 7.05 9.92 6.56 9.36 C5.48 8.1 4.46 6.8 3.44 5.5 C2.78 4.66 2.11 3.83 1.43 2.97 C0 1 0 1 0 0 Z " fill="#000000" transform="translate(445,203)"/>
<path d="M0 0 C0 0.66 0 1.32 0 2 C-0.67 2.25 -1.33 2.49 -2.02 2.74 C-5.24 3.93 -8.46 5.12 -11.69 6.31 C-12.88 6.75 -14.08 7.2 -15.31 7.65 C-21.92 10.09 -28.51 12.57 -35.07 15.11 C-36.39 15.62 -37.71 16.13 -39.03 16.64 C-40.94 17.38 -42.86 18.12 -44.77 18.87 C-46.55 19.57 -48.33 20.26 -50.12 20.95 C-51.13 21.34 -52.15 21.74 -53.2 22.15 C-56.01 23 -58.09 23.27 -61 23 C-63.23 21.71 -63.23 21.71 -65.62 19.81 C-71.7 15.16 -77.99 10.9 -84.36 6.66 C-88.69 3.74 -92.47 0.85 -96 -3 C-88.24 -3.79 -80.48 -4.54 -72.72 -5.26 C-68.14 -5.69 -63.56 -6.14 -58.98 -6.62 C-53.63 -7.17 -48.27 -7.69 -42.9 -8.19 C-40.77 -8.4 -38.64 -8.61 -36.5 -8.84 C-33.47 -9.16 -30.43 -9.44 -27.39 -9.72 C-26.49 -9.82 -25.59 -9.93 -24.66 -10.03 C-14.93 -10.83 -7.38 -5.94 0 0 Z " fill="#000000" transform="translate(691,309)"/>
<path d="M0 0 C1.36 0.04 2.71 0.08 4.07 0.11 C7.36 0.2 10.65 0.33 13.94 0.5 C3.98 12.21 -6.41 23.51 -17 34.64 C-20.8 38.64 -24.54 42.67 -28.2 46.79 C-52.73 74.32 -52.73 74.32 -63.93 75.21 C-74.14 75.1 -83.85 71.67 -93.06 67.5 C-87.58 62 -87.58 62 -84.97 59.77 C-84.42 59.3 -83.87 58.84 -83.31 58.35 C-82.73 57.87 -82.16 57.38 -81.56 56.88 C-80.95 56.36 -80.34 55.84 -79.72 55.3 C-77.83 53.7 -75.95 52.1 -74.06 50.5 C-72.92 49.53 -71.78 48.56 -70.64 47.59 C-65.7 43.38 -60.73 39.21 -55.69 35.12 C-50.57 30.96 -45.59 26.64 -40.62 22.31 C-36.1 18.37 -31.5 14.54 -26.82 10.79 C-24.06 8.5 -24.06 8.5 -22.27 6.48 C-15.51 -0.67 -9.46 -0.49 0 0 Z M-61.06 50.5 C-62.06 51.4 -63.06 52.3 -64.06 53.19 C-66.76 55.6 -69.42 58.04 -72.06 60.5 C-68.09 63.15 -64.85 64.2 -60.06 63.5 C-56.57 61.24 -53.95 58.34 -51.19 55.25 C-50.44 54.46 -49.7 53.67 -48.93 52.86 C-47.55 51.39 -46.18 49.91 -44.82 48.42 C-43.27 46.73 -41.69 45.1 -40.06 43.5 C-49.6 42.48 -54.22 43.92 -61.06 50.5 Z " fill="#000000" transform="translate(581.0625,407.5)"/>
<path d="M0 0 C1.75 0.03 3.49 0.07 5.24 0.14 C6.13 0.16 7.02 0.18 7.94 0.2 C10.15 0.24 12.35 0.31 14.55 0.39 C10.64 5.89 6.34 10.87 1.74 15.8 C-2.01 19.85 -5.5 24.07 -8.89 28.43 C-11.68 31.94 -13.19 32.72 -17.57 33.46 C-18.59 33.63 -19.61 33.81 -20.65 33.99 C-21.72 34.16 -22.79 34.34 -23.89 34.52 C-24.95 34.7 -26.01 34.88 -27.11 35.07 C-34.98 36.39 -34.98 36.39 -38.45 36.39 C-36.86 32.52 -34.38 30.07 -31.43 27.14 C-30.94 26.65 -30.45 26.16 -29.94 25.65 C-28.89 24.61 -27.85 23.57 -26.8 22.54 C-25.21 20.97 -23.63 19.39 -22.05 17.81 C-14.04 9.84 -14.04 9.84 -10.18 6.7 C-7.45 4.39 -7.45 4.39 -6.18 2.09 C-3.98 -0.07 -3.03 0.1 0 0 Z " fill="#000000" transform="translate(620.44921875,407.609375)"/>
<path d="M0 0 C-1.43 3.08 -3.14 5.66 -5.2 8.35 C-5.85 9.19 -6.49 10.04 -7.15 10.9 C-7.85 11.8 -8.54 12.7 -9.25 13.62 C-9.97 14.56 -10.68 15.49 -11.42 16.45 C-16.57 23.18 -21.77 29.86 -26.99 36.54 C-31.21 41.96 -35.35 47.44 -39.45 52.94 C-43.92 58.93 -48.5 64.83 -53.11 70.71 C-53.66 71.41 -54.21 72.12 -54.77 72.84 C-55.31 73.53 -55.84 74.21 -56.39 74.91 C-58.57 77.74 -60.65 80.64 -62.73 83.55 C-63.15 84.03 -63.57 84.51 -64 85 C-64.66 85 -65.32 85 -66 85 C-71.24 63.05 -71.24 63.05 -68.58 56.5 C-66.21 54.02 -63.74 52.05 -61 50 C-59.51 48.29 -58.08 46.54 -56.69 44.75 C-51.76 38.67 -46.67 32.74 -41.56 26.81 C-39.49 24.41 -37.44 22 -35.39 19.59 C-34.39 18.41 -33.37 17.24 -32.35 16.07 C-29.97 13.35 -27.71 10.65 -25.66 7.68 C-18.45 -1.95 -11.1 -1.2 0 0 Z " fill="#000000" transform="translate(673,408)"/>
<path d="M0 0 C0 3.66 -0.84 4.46 -3.04 7.32 C-3.68 8.16 -4.33 9.01 -4.99 9.88 C-5.67 10.77 -6.36 11.65 -7.06 12.56 C-8.39 14.29 -9.71 16.02 -11.04 17.75 C-11.69 18.61 -12.35 19.48 -13.03 20.36 C-15.59 23.79 -18.03 27.28 -20.45 30.81 C-21.46 32.23 -22.51 33.63 -23.61 34.99 C-25.06 36.81 -25.06 36.81 -27 40 C-25.92 44.34 -23.48 46.94 -20.44 50.12 C-16.98 53.83 -13.68 57.55 -10.5 61.5 C-6.53 66.44 -2.31 71.08 2.03 75.69 C4 78 4 78 5 81 C0.81 81.2 -3.37 81.33 -7.56 81.44 C-8.15 81.47 -8.15 81.47 -11.14 81.62 C-19.74 81.78 -19.74 81.78 -23.25 79.6 C-25.04 77.83 -26.52 76.04 -28 74 C-28.77 73.1 -29.54 72.19 -30.34 71.26 C-31.01 70.41 -31.68 69.56 -32.38 68.69 C-35.38 64.95 -38.45 61.35 -41.69 57.81 C-45.41 53.73 -48.8 49.5 -52 45 C-50.72 42.3 -49.32 39.93 -47.54 37.54 C-47.07 36.9 -46.6 36.27 -46.11 35.61 C-45.62 34.95 -45.13 34.3 -44.62 33.62 C-43.66 32.33 -42.69 31.03 -41.73 29.73 C-41.49 29.41 -41.49 29.41 -40.28 27.81 C-39 26 -39 26 -37.41 22.96 C-33.53 18.19 -28.25 15.85 -22.88 13 C-20.68 11.81 -18.49 10.63 -16.3 9.44 C-15.25 8.87 -14.19 8.3 -13.1 7.71 C-8.66 5.26 -4.32 2.66 0 0 Z " fill="#000000" transform="translate(762,447)"/>
<path d="M0 0 C0 3.43 -0.35 3.77 -2.53 6.22 C-2.8 6.53 -2.8 6.53 -4.17 8.09 C-4.75 8.74 -5.33 9.39 -5.94 10.06 C-6.23 10.4 -6.23 10.4 -7.74 12.1 C-11.75 16.64 -15.82 21.12 -19.89 25.61 C-22.95 29.08 -25.84 32.68 -28.75 36.28 C-31.64 39.78 -34.7 43.12 -37.75 46.47 C-40.06 49.07 -42.26 51.73 -44.44 54.44 C-45.2 55.35 -45.96 56.26 -46.75 57.19 C-49 60 -49 60 -50.91 62.96 C-57.17 71.69 -64.29 72.88 -74.51 74.63 C-77.67 75.12 -80.83 75.57 -84 76 C-85.65 76.24 -87.31 76.49 -88.96 76.73 C-92.3 77.22 -95.64 77.63 -99 78 C-95.02 73.28 -90.93 68.71 -86.69 64.23 C-86.09 63.59 -85.49 62.95 -84.87 62.3 C-79.32 56.44 -73.72 50.65 -68.09 44.87 C-64.33 41 -60.59 37.12 -56.91 33.19 C-26.74 1.08 -26.74 1.08 -4.7 -0.06 C-3.13 -0.06 -1.57 -0.05 0 0 Z M-41 27.71 C-47.68 34.56 -47.68 34.56 -48.73 39.25 C-48.69 41.91 -48.51 44.38 -48 47 C-46.87 45.91 -45.75 44.8 -44.65 43.68 C-43.41 42.42 -42.14 41.19 -40.85 39.98 C-35.14 34.26 -35.14 34.26 -34.71 30.42 C-34.97 28.19 -35.35 26.14 -36 24 C-38.17 24 -39.54 26.28 -41 27.71 Z " fill="#000000" transform="translate(595,452)"/>
<path d="M0 0 C3.63 3.63 3.63 9.2 4.5 14.12 C4.62 14.68 4.62 14.68 5.2 17.51 C6.11 22.69 6.77 26.94 4.01 31.61 C-0.81 36.88 -7.91 37.16 -14.62 38.06 C-15.96 38.27 -17.3 38.49 -18.63 38.7 C-29.19 40.3 -29.19 40.3 -33 39 C-31.78 37.58 -30.56 36.16 -29.34 34.73 C-28.27 33.48 -27.19 32.22 -26.12 30.97 C-23.36 27.76 -20.61 24.54 -17.85 21.34 C-11.79 14.31 -5.83 7.22 0 0 Z " fill="#000000" transform="translate(593,479)"/>
</svg>
